<?xml version="1.0" encoding="UTF-8"?>
<svg id="Livello_1" xmlns="http://www.w3.org/2000/svg" version="1.1" viewBox="0 0 286.31 152">
  <!-- Generator: Adobe Illustrator 29.8.3, SVG Export Plug-In . SVG Version: 2.1.1 Build 3)  -->
  <defs>
    <style>
      .st0 {
        fill: #fff;
      }
    </style>
  </defs>
  <path class="st0" d="M5.35,3C-2.75,8.8-1.45,20.1,7.85,24.9c3.1,1.6,267.5,1.6,270.6,0,6.2-3.2,8.6-8.3,7.3-15.4-.5-2.6-1.8-4.4-4.8-6.5L276.85,0H9.45l-4.1,3Z"/>
  <path class="st0" d="M6.05,65.3c-4.1,2.7-5.9,6-5.9,10.7s1.8,8,5.9,10.7l3.4,2.3h267.4l3.4-2.3c4.1-2.7,5.9-6,5.9-10.7s-1.8-8-5.9-10.7l-3.4-2.3H9.45s-3.4,2.3-3.4,2.3Z"/>
  <path class="st0" d="M7.65,127.2c-6.1,3.3-8.4,8.3-7.1,15.3.5,2.6,1.8,4.4,4.8,6.5l4.1,3h267.4l4.1-3c8.1-5.8,6.8-17.1-2.5-21.9-3.1-1.6-267.9-1.5-270.8.1h0Z"/>
</svg>